<?xml version="1.0" encoding="utf-8" ?>
<svg xmlns="http://www.w3.org/2000/svg" xmlns:xlink="http://www.w3.org/1999/xlink" width="800" height="800">
	<path fill="white" transform="scale(1.5625 1.5625)" d="M297.438 461.648C279.319 466.995 260.974 470.25 242.086 471.168L227.743 471.273C108.063 471.093 10.2172 376.951 2.17501 257.75C-5.43073 145.018 70.4225 42.5288 181.701 17.0791C198.012 13.3489 214.266 11.1479 231.016 11.2112L244.465 11.295C328.985 15.7887 402.539 69.7306 437.192 145.829L446.093 136.849C450.072 132.892 454.129 129.001 459.037 126.203C492.347 107.211 523.131 147.174 503.556 173.546C497.82 181.274 489.773 187.811 482.844 194.481L456.688 219.291C460.18 232.49 456.42 271.17 453.948 284.004C439.797 357.457 391.225 422.445 322.134 452.654C314.116 456.159 305.768 458.988 297.438 461.648ZM229.377 26.9229C161.04 27.406 95.3197 62.6708 56.3548 118.698C33.9367 150.932 20.709 190.402 17.9795 229.408C12.5699 306.712 52.8976 384.537 119.262 424.618C202.086 474.639 310.895 464.223 379.566 394.017C416.509 356.247 438.875 305.773 442.319 253.027C442.732 246.705 442.439 240.194 442.419 233.854L442.223 234.092C440.943 235.61 438.934 236.722 437.429 238.114L432.371 242.811L272.098 397.074C259.678 408.437 248.358 415.925 232.172 421.385C224.696 423.907 217.013 425.898 209.792 429.12L192.711 438.32C182.976 443.309 176.122 434.516 179.847 427.34C181.097 424.932 183.204 422.906 184.697 420.632C187.049 417.048 188.831 412.918 190.543 409L199.239 387.706C209.063 362.482 209.633 363.198 228.879 344.806L262.734 312.627L423.567 157.742C425.733 155.751 424.313 155.683 422.873 152.455C392.497 84.3379 325.706 34.755 251.038 27.6346L229.377 26.9229ZM476.334 136.858C464.403 137.885 456.203 149.215 448.042 156.919L389.23 213.511L241.507 354.222C240.508 355.083 239.226 355.941 238.345 356.905L259.947 380.101L263.102 383.839L276.592 371.354L478.716 176.662C482.329 173.217 486.237 169.821 489.453 165.998C498.982 154.674 490.673 137.379 476.334 136.858ZM226.043 369.125C222.893 372.812 217.048 381.654 216.135 386.685C218.717 390.297 227.338 401.298 231.18 403.713L239.149 401.021C243.335 399.09 247.358 396.923 251.071 394.168L238.494 380.121C234.922 376.249 231.194 371.925 226.753 369.044L226.043 369.125ZM208.7 402.62L206.875 408.684L210.737 408.323C211.43 408.26 212.738 408.329 213.168 407.824L208.7 402.62Z"/>
	<path fill="white" transform="scale(1.5625 1.5625)" d="M110.301 132.573C106.508 132.604 101.686 133.421 98.5933 130.862C93.6021 126.733 95.2107 118.009 102.155 117.261C104.73 116.984 107.458 117.158 110.054 117.157L339.481 117.099C342.099 117.07 345.034 116.697 347.621 117.024C351.491 117.514 354.366 121.912 353.837 125.62L353.777 126C352.548 133.978 343.338 132.587 337.491 132.579L110.301 132.573Z"/>
	<path fill="white" transform="scale(1.5625 1.5625)" d="M345.662 185.957L102.53 186.052C93.0717 185.603 92.5288 171.082 104.63 170.62L343.952 170.747C345.562 170.796 347.63 170.689 349.08 171.402L349.342 171.538C358.208 175.772 354.696 185.043 345.662 185.957Z"/>
	<path fill="white" transform="scale(1.5625 1.5625)" d="M249.687 239.504L115.387 239.514C110.752 239.522 105.625 240.007 101.045 239.508C96.1281 238.972 93.9913 230.323 97.8699 226.558C101.154 223.371 105.621 224.012 109.793 224.007L169.031 223.999L309.916 223.963C315.305 223.948 323.33 224.071 323.269 232.086C323.214 239.294 315.011 239.507 310.172 239.509L249.687 239.504Z"/>
	<path fill="white" transform="scale(1.5625 1.5625)" d="M253.625 293.042L107.157 293.045C105.327 293.046 103.398 293.174 101.581 292.997C95.3296 292.388 89.7267 277.703 107.819 277.596L115.564 277.569L251.514 277.546C256.516 277.543 261.945 277.114 266.889 277.609C275.195 278.441 278.077 293.173 262.471 293.107L253.625 293.042Z"/>
	<path fill="white" transform="scale(1.5625 1.5625)" d="M175.625 346.567L108.11 346.621C106.033 346.63 103.531 346.919 101.528 346.399C94.0191 344.449 93.8964 334.962 100.526 331.928C102.651 330.955 105.067 331.172 107.353 331.167L132.137 331.14L198.131 331.159C200.919 331.162 203.909 330.971 206.666 331.305C213.776 332.166 213.621 344.566 206.581 346.246C203.39 347.007 199.257 346.563 195.977 346.566L175.625 346.567Z"/>
</svg>
