<?xml version="1.0" encoding="utf-8" ?>
<svg xmlns="http://www.w3.org/2000/svg" xmlns:xlink="http://www.w3.org/1999/xlink" width="800" height="800">
	<path fill="#FAFAEF" fill-opacity="0.3019608" d="M511.727 795.778C508.196 796.175 504.348 795.883 500.781 795.895C499.87 795.289 498.927 795.506 497.852 795.504C497.5 795.738 497.125 795.932 496.875 796.289L496.582 796.873L496.484 795.508C493.222 795.519 489.246 796.012 486.133 795.113L485.742 795.504C483.712 795.519 481.847 795.68 479.883 795.113C478.885 796.111 466.224 795.504 463.867 795.504L463.477 795.895L463.09 795.508L461.133 795.504L460.449 795.701C459.915 795.348 459.041 795.505 458.398 795.504L458.008 795.895C457.424 795.311 457.237 795.507 456.445 795.504L455.859 795.895L455.277 795.508C454.255 795.504 454.149 795.471 453.32 796.048L438.349 794.375C435.746 794.096 432.952 794.02 430.469 793.164L431.445 792.969C432.017 793.214 432.75 793.497 433.398 793.359L434.082 793.066C434.59 793.321 435.275 793.394 435.84 793.262L436.523 792.969C437.543 793.406 438.749 793.487 439.846 793.268C440.407 793.155 440.553 793.145 441.138 793.262L441.602 793.359L442.285 793.066C442.765 793.306 443.804 793.508 444.336 793.359L445.02 793.066C445.631 793.433 448.242 793.594 449.023 793.359L449.707 793.066C450.163 793.294 450.854 793.465 451.367 793.359L452.051 793.066C452.665 793.373 454.212 793.522 454.883 793.359L455.566 793.066C456.18 793.373 457.727 793.522 458.398 793.359L459.082 793.066C459.939 793.581 461.181 793.364 462.189 793.365L471.73 793.264C474.69 793.178 479.209 792.568 481.987 793.286C486.695 794.035 491.852 793.781 496.444 794.807L497.07 794.509L497.579 794.647C499.169 795.044 500.993 794.88 502.635 795.072C505.434 795.4 509.167 794.615 511.727 795.778Z"/>
	<defs>
		<linearGradient id="gradient_0" gradientUnits="userSpaceOnUse" x1="470.08801" y1="792.94702" x2="474.25601" y2="779.44">
			<stop offset="0" stop-color="#E7E6E5" stop-opacity="0.30588236"/>
			<stop offset="1" stop-color="#E8E6E5" stop-opacity="0.41176471"/>
		</linearGradient>
	</defs>
	<path fill="url(#gradient_0)" d="M415.501 784.782L471.951 784.729L489.871 784.744C492.688 784.745 495.979 784.414 498.749 784.814C497.92 785.051 497.18 785.036 496.332 785.085C495.783 785.116 495.989 785.069 495.512 785.352C496.064 786.255 495.969 786.443 495.898 787.519L459.949 787.989C457.441 788.242 435.731 788.464 434.574 787.695C435.57 787.192 437.872 787.481 439.036 787.481L450.977 787.5L451.172 786.523C450.734 786.523 449.573 786.663 449.219 786.52C448.964 786.416 448.891 786.032 448.633 785.938C447.816 785.639 445.233 785.941 444.244 785.942L424.602 785.956C421.951 785.957 418.196 786.422 415.685 785.742L430.664 785.355L415.501 784.782Z"/>
	<defs>
		<linearGradient id="gradient_1" gradientUnits="userSpaceOnUse" x1="552.34399" y1="796.09998" x2="552.34302" y2="793.76099">
			<stop offset="0" stop-color="#E7E7E6" stop-opacity="0.3019608"/>
			<stop offset="1" stop-color="#E7E7E6" stop-opacity="0.34117648"/>
		</linearGradient>
	</defs>
	<path fill="url(#gradient_1)" d="M481.987 793.286L492.216 793.135C493.499 793.136 494.952 792.938 496.107 793.555L497.122 793.371C498.559 793.161 500.277 793.625 501.747 793.703C505.056 793.88 508.331 793.688 511.642 793.997C512.699 794.095 513.781 793.891 514.844 793.924L532.227 794.158L566.292 794.285C573.577 794.237 581.196 794.488 588.431 793.615C589.656 793.467 590.447 794.119 591.605 794.336L592.188 793.559L594.556 795.363C592.683 795.953 587.187 795.435 586.328 796.285L575.797 796.288C574.633 796.289 573.231 796.035 572.266 796.676C568.732 796.676 545.461 797.261 544.238 796.287L543.75 796.676L543.066 796.287L542.578 796.676L541.895 796.287L541.406 796.676L540.723 796.287L540.234 796.676L539.551 796.287L539.062 796.676L538.379 796.287L537.891 796.676L537.207 796.287L536.719 796.676L536.133 796.285L535.449 796.482L535.059 796.287L534.375 796.676L533.789 796.285L533.105 796.482L532.715 796.287C532.141 796.431 532.096 796.564 531.543 796.287C530.969 796.431 530.924 796.564 530.371 796.287C529.691 796.457 529.825 796.414 529.199 796.287L512.159 796.253L511.727 795.778C509.167 794.615 505.434 795.4 502.635 795.072C500.993 794.88 499.169 795.044 497.579 794.647L497.07 794.509L496.444 794.807C491.852 793.781 486.695 794.035 481.987 793.286Z"/>
	<path fill="#FEFEED" fill-opacity="0.3764706" d="M509.168 784.801L601.587 784.748L631.395 784.714C636.472 784.7 641.947 784.269 646.969 784.789L640.039 785.376L644.608 785.742C642.295 786.317 639.509 785.814 637.109 786.033L635.938 786.033L635.144 786.039C634.202 786.039 633.364 785.981 632.422 786.033C631.003 786.112 629.344 785.71 628.125 786.52L625.684 786.621L625 787.301L625.195 787.5L643.555 787.5L643.555 787.786C642.466 788.133 641.548 788.114 640.426 788.086L640.039 788.473L639.648 788.082L617.198 788.005L617.383 788.871L617.967 789.064L619.332 790.43L619.332 791.602C618.766 792.067 617.865 792.931 617.188 793.16C616.405 793.425 616.527 792.951 615.625 793.551C614.8 793.554 614.796 793.454 614.062 793.941C613.096 793.944 612.548 793.781 611.719 794.332C611.042 794.333 610.031 794.161 609.473 794.529L608.785 794.336L608.398 795.113L608.008 794.723C607.483 794.725 607.186 794.624 606.738 794.92L606.051 794.727L605.664 795.113L605.273 794.723C604.613 794.991 604.908 794.797 604.395 795.311L603.711 795.113C603.245 795.034 602.826 795.057 602.441 795.311L601.758 795.113L600.781 795.117L600.391 795.504L599.801 795.117L599.219 795.504C597.868 795.483 595.81 795.732 594.556 795.363L592.188 793.559L591.605 794.336C590.447 794.119 589.656 793.467 588.431 793.615C581.196 794.488 573.577 794.237 566.292 794.285L532.227 794.158L514.844 793.924C513.781 793.891 512.699 794.095 511.642 793.997C508.331 793.688 505.056 793.88 501.747 793.703C500.277 793.625 498.559 793.161 497.122 793.371L496.107 793.555C494.952 792.938 493.499 793.136 492.216 793.135L481.987 793.286C479.209 792.568 474.69 793.178 471.73 793.264L469.531 793.16C468.702 792.609 468.154 792.772 467.188 792.77C466.495 792.084 465.445 792.484 464.491 792.294L464.064 792.186L463.281 791.988C462.406 791.53 462.325 791.6 461.328 791.598C460.481 791.035 459.64 790.992 458.793 790.43C459.114 789.566 459.516 788.8 459.949 787.989L495.898 787.519C495.969 786.443 496.064 786.255 495.512 785.352C495.989 785.069 495.783 785.116 496.332 785.085C497.18 785.036 497.92 785.051 498.749 784.814C502.083 784.799 505.891 784.395 509.168 784.801ZM509.168 784.801C512.185 785.394 515.301 785.216 518.363 785.215L532.844 785.195L584.766 785.352L563.871 785.502L527.344 785.6L515.913 785.613C514.729 785.615 512.923 785.349 511.858 785.854L512.305 787.6L576.319 788.104C579.854 788.101 583.594 788.341 587.109 788.065C590.494 787.799 594.67 787.006 598.002 787.844L599.023 787.5L599.382 787.691C600.542 788.144 602.448 787.912 603.712 787.914C607.932 787.921 613.085 787.33 617.198 788.005L639.648 788.082L640.039 788.473L640.426 788.086C641.548 788.114 642.466 788.133 643.555 787.786L643.555 787.5L625.195 787.5L625 787.301L625.684 786.621L628.125 786.52C629.344 785.71 631.003 786.112 632.422 786.033C633.364 785.981 634.202 786.039 635.144 786.039L635.938 786.033L637.109 786.033C639.509 785.814 642.295 786.317 644.608 785.742L640.039 785.376L646.969 784.789C641.947 784.269 636.472 784.7 631.395 784.714L601.587 784.748L509.168 784.801Z"/>
	<defs>
		<linearGradient id="gradient_2" gradientUnits="userSpaceOnUse" x1="570.479" y1="790.96997" x2="569.81897" y2="781.79199">
			<stop offset="0" stop-color="#E7E6E5" stop-opacity="0.35686275"/>
			<stop offset="1" stop-color="#E8E6E5" stop-opacity="0.44313726"/>
		</linearGradient>
	</defs>
	<path fill="url(#gradient_2)" d="M509.168 784.801L601.587 784.748L631.395 784.714C636.472 784.7 641.947 784.269 646.969 784.789L640.039 785.376L644.608 785.742C642.295 786.317 639.509 785.814 637.109 786.033L635.938 786.033L635.144 786.039C634.202 786.039 633.364 785.981 632.422 786.033C631.003 786.112 629.344 785.71 628.125 786.52L625.684 786.621L625 787.301L625.195 787.5L643.555 787.5L643.555 787.786C642.466 788.133 641.548 788.114 640.426 788.086L640.039 788.473L639.648 788.082L617.198 788.005C613.085 787.33 607.932 787.921 603.712 787.914C602.448 787.912 600.542 788.144 599.382 787.691L599.023 787.5L598.002 787.844C594.67 787.006 590.494 787.799 587.109 788.065C583.594 788.341 579.854 788.101 576.319 788.104L512.305 787.6L511.858 785.854C512.923 785.349 514.729 785.615 515.913 785.613L527.344 785.6L563.871 785.502L584.766 785.352L532.844 785.195L518.363 785.215C515.301 785.216 512.185 785.394 509.168 784.801Z"/>
	<path fill="#D3302D" d="M196.893 114.526L197.852 114.502C200.711 114.595 203.699 115.237 205.683 117.437C208.607 120.679 209.088 127.035 209.913 131.189C212.021 141.793 214.042 152.038 213.497 162.901C212.856 175.687 207.207 187.213 197.65 195.725C188.545 203.835 175.483 208.129 163.341 207.3C146.853 206.176 133.13 198.333 122.326 186.063C119.563 182.68 116.269 178.829 115.418 174.414C114.809 171.258 115.689 168.084 117.508 165.467C121.104 160.292 127.29 155.953 133.547 154.912C142.638 153.399 144.344 158.411 148.881 164.753C151.204 168 154.138 170.849 157.419 173.119C162.264 176.47 167.272 178.669 172.971 180.049C175.095 180.563 177.389 181.065 179.556 180.597C181.33 180.214 181.447 178.141 181.787 176.586C182.966 171.205 182.313 165.789 181.589 160.394L178.409 141.797C177.765 138.639 176.554 134.994 176.681 131.761C176.77 129.502 177.927 127.124 179.165 125.282C183.134 119.374 190.152 115.977 196.893 114.526Z"/>
	<path fill="#D3302D" d="M193.731 251.776C193.273 251.046 192.664 250.369 191.992 249.826C190.245 248.412 188.342 248.896 186.374 249.408C176.311 252.024 167.45 262.393 160.927 270.02C157.86 273.605 154.718 277.599 150.879 280.398C148.231 282.329 144.702 283.361 141.459 283.746C136.944 284.283 131.536 282.627 128.054 279.779C124.67 277.012 121.962 273.33 121.576 268.872C121.262 265.247 123.021 262.885 125.243 260.278L133.753 250.935C142.637 241.019 151.732 231.323 164.101 225.738C169.995 223.076 176.572 221.696 182.994 221.207C195.725 220.236 207.064 225.117 216.632 233.227C220.267 236.992 222.983 240.478 225.653 244.986C227.239 248.119 228.94 251.451 229.878 254.845C232.45 268.038 231.988 279.608 229.669 292.779C229.084 296.099 228.729 299.95 226.744 302.766C224.492 305.96 220.401 307.732 216.602 308.149C211.305 308.732 204.107 306.253 200.224 302.772C197.436 300.271 195.383 296.788 195.298 292.969C195.236 290.141 195.969 287.164 196.46 284.39C196.712 282.966 197.15 281.487 196.801 280.055C198.286 278.18 198.096 272.852 197.926 270.482L198.078 269.909C199.314 264.656 196.466 256.15 193.731 251.776Z"/>
	<path fill="#D3302D" d="M228.34 225.009C224.318 216.554 221.699 209.092 221.895 199.616C222.147 187.382 227.775 176.315 236.535 167.962C247.803 157.217 262.909 154.085 277.891 152.746C281.4 152.433 285.087 151.885 288.603 152.071C292.063 152.254 295.297 153.817 297.582 156.441C300.615 159.924 301.757 165.214 301.417 169.727C300.915 176.376 298.08 182.975 291.354 185.345C288.297 186.423 284.633 186.325 281.421 186.539C271.81 187.178 260.653 188.383 253.151 195.13C251.601 196.525 249.539 198.35 249.485 200.586C249.392 204.403 252.325 207.398 254.737 210.05C258.524 213.72 263.179 217.043 267.953 219.297L283.131 227.685C289.063 231.134 293.47 234.051 295.274 241.211C296.469 245.957 295.575 251.795 293.004 255.915C291.112 258.947 287.94 262.413 284.375 263.311C282.737 263.723 280.605 263.696 279.012 263.105C275.264 261.716 271.52 258.988 267.969 257.075C262.571 254.167 257.012 251.769 251.842 248.429L246.589 244.874L237.298 237.042C233.376 239.521 229.727 242.837 225.653 244.986C222.983 240.478 220.267 236.992 216.632 233.227L228.34 225.009Z"/>
	<path fill="#2E0805" d="M228.34 225.009C230.905 229.391 233.862 233.306 237.298 237.042C233.376 239.521 229.727 242.837 225.653 244.986C222.983 240.478 220.267 236.992 216.632 233.227L228.34 225.009Z"/>
	<path fill="#FDBA64" d="M254.737 210.05C286.288 194.959 319.773 185.785 354.484 181.609L385.287 179.063C383.598 158.61 386.133 137.458 399.912 121.282C406.755 113.249 418.086 103.739 429.151 103.255C431.482 103.154 434.863 104.076 436.57 105.733C440.681 109.723 441.698 116.039 441.598 121.549C441.505 126.676 441.028 133.192 439.727 138.159C443.745 135.323 447.493 132.204 451.819 129.825C466.578 121.71 483.613 116.876 500.286 114.728C503.9 114.263 507.511 114.193 511.133 113.883C524.453 112.742 538.193 113.119 551.393 115.442C573.189 119.279 596.505 128.334 612.423 144.197C614.527 146.294 616.819 148.472 618.516 150.911C622.644 156.841 626.055 163.593 624.51 171.008C623.04 178.065 617.692 183.032 611.747 186.615C609.641 187.884 607.205 188.754 604.932 189.678C593.855 194.176 580.281 195.665 568.347 195.125C563.625 194.912 558.925 194.126 554.213 193.722C553.368 193.65 551.477 193.249 550.734 193.578C554.733 196.474 559.406 199.094 562.874 202.613C564.638 204.402 566.26 206.306 567.822 208.272C568.68 209.351 569.658 210.893 570.857 211.603C574.524 213.77 579.254 215.234 583.196 216.978L604.303 227.117C623.757 236.971 642.799 248.848 659.337 263.105C673.5 275.315 685.834 289.277 696.842 304.354C703.398 313.333 709.182 323.305 714.447 333.096L717.999 339.844C718.813 341.571 719.399 343.464 720.481 345.042L734.977 336.418C737.632 340.111 738.544 344.301 739.332 348.713C741.019 358.156 740.971 367.729 740.731 377.289C740.616 381.859 740.705 386.556 740.013 391.084C739.822 392.331 739.471 393.637 739.659 394.904C740.194 398.525 741.756 402.506 742.777 406.055L749.146 429.874C754.569 454.002 756.903 478.472 757.077 503.184C757.257 528.664 755.139 554.094 752.211 579.385L750.98 591.155C750.809 592.592 749.991 595.523 750.786 596.675C752.676 599.414 755.245 601.831 757.223 604.581C762.736 612.246 767.445 621.325 771.207 629.972C784.357 660.197 789.008 693.811 790.82 726.477C791.506 738.83 792.028 751.052 791.634 763.429C791.43 769.852 791.841 776.977 790.767 783.292L790.487 784.422L773.332 784.499L734.095 784.449L708.43 784.632L690.628 784.737L660.594 784.78L646.969 784.789C641.947 784.269 636.472 784.7 631.395 784.714L601.587 784.748L509.168 784.801C505.891 784.395 502.083 784.799 498.749 784.814C495.979 784.414 492.688 784.745 489.871 784.744L471.951 784.729L415.501 784.782L285.167 784.662L257.193 784.732L234.862 784.642L73.037 784.526L48.3079 784.453L17.5912 784.496L1.34188 784.37L2.81046 729.688C4.79985 697.196 9.66768 664.006 18.298 632.617C25.0747 607.97 34.0295 584.027 47.3024 562.087C52.2224 553.954 57.9562 546.108 64.3688 539.086C65.6303 537.705 73.367 531.038 73.6607 530.074C74.0471 528.806 74.0284 526.954 74.1885 525.611L75.4602 515.463L83.2972 473.333C98.2366 406.285 120.725 338.783 163.791 284.168C172.875 272.648 182.716 261.5 193.731 251.776C196.466 256.15 199.314 264.656 198.078 269.909L197.926 270.482C198.096 272.852 198.286 278.18 196.801 280.055C197.15 281.487 196.712 282.966 196.46 284.39C195.969 287.164 195.236 290.141 195.298 292.969C195.383 296.788 197.436 300.271 200.224 302.772C204.107 306.253 211.305 308.732 216.602 308.149C220.401 307.732 224.492 305.96 226.744 302.766C228.729 299.95 229.084 296.099 229.669 292.779C231.988 279.608 232.45 268.038 229.878 254.845C228.94 251.451 227.239 248.119 225.653 244.986C229.727 242.837 233.376 239.521 237.298 237.042L246.589 244.874L251.842 248.429C257.012 251.769 262.571 254.167 267.969 257.075C271.52 258.988 275.264 261.716 279.012 263.105C280.605 263.696 282.737 263.723 284.375 263.311C287.94 262.413 291.112 258.947 293.004 255.915C295.575 251.795 296.469 245.957 295.274 241.211C293.47 234.051 289.063 231.134 283.131 227.685L267.953 219.297C263.179 217.043 258.524 213.72 254.737 210.05ZM254.737 210.05C258.524 213.72 263.179 217.043 267.953 219.297L283.131 227.685L301.286 221.116C320.071 214.972 339.517 210.283 359.104 207.625L360.145 208.086L358.826 208.302C359.169 208.304 359.642 208.284 359.961 208.402C360.586 208.635 360.832 209.015 361.523 209.171C363.607 209.64 366.518 209.276 368.708 209.287L386.519 209.439L413.988 210.511C429.907 211.468 445.226 213.171 461.133 210.555C467.475 209.512 473.935 207.876 479.492 204.529C482.942 202.451 486.493 199.053 487.375 194.988C488.13 191.512 486.935 188.164 484.895 185.353C480.406 179.171 470.727 174.798 463.411 173.463C464.642 172.512 466.542 172.033 468.016 171.472L478.602 167.533C487.768 163.885 496.835 159.16 504.606 153.057C510.346 148.548 515.805 142.535 516.708 135.051L529.6 135.147L532.287 135.26L561.753 138.626L574.603 140.893C576.553 141.228 578.696 141.787 580.664 141.775C582.452 141.765 582.953 141.37 584.398 140.392C587.094 141.219 589.686 142.832 592.043 144.353C597.161 147.659 602.801 152.036 605.723 157.523C607.649 161.142 608.325 165.011 607.181 168.996C605.779 173.878 601.553 177.106 597.233 179.311C592.372 181.792 586.987 182.802 581.641 183.613C563.75 186.327 544.507 184.07 526.676 181.863C525.67 181.739 524.31 181.262 523.633 182.045L524.344 183.2C533.176 189.775 541.468 197.198 548.358 205.824L548.242 206.904C546.508 207.392 543.975 206.064 542.383 205.241C541.545 205.303 540.575 205.257 539.959 205.925C538.687 207.307 539.047 208.834 538.78 210.548L538.875 210.997C539.423 212.956 540.743 214.807 541.562 216.681C545.202 225.008 548.078 233.86 544.73 242.773L544.533 243.361C544.13 244.267 543.404 245.126 542.787 245.893L542.808 246.315C542.828 246.803 542.873 246.624 542.759 246.92C520.404 244.425 500.482 235.959 479.469 228.703C486.17 233.863 494.211 238.08 501.65 242.099C515.434 249.547 530.256 256.639 545.933 258.768C552.135 259.61 558.02 259.738 564.075 257.874C570.521 255.891 574.504 251.565 577.54 245.735C580.05 247.364 583.009 248.371 585.745 249.586L599.165 255.856L605.377 258.984C605.984 259.299 607.257 260.191 607.899 260.275L634.617 276.271C652.892 288.167 669.687 301.494 684.962 317.061C685.614 317.725 686.171 318.614 687.107 318.725C687.26 317.914 687.228 318.433 687.14 317.719C687.056 317.043 687.215 316.574 687.396 315.932C696.279 326.918 702.558 340.009 708.976 352.492L685.175 368.344C682.695 369.974 679.775 372.651 677.098 373.754C683.2 366.984 689.907 360.751 695.685 353.689C697.839 351.056 700.461 348.066 701.357 344.727L700.997 343.928C697.905 343.269 691.975 347.205 689.338 348.914C679.543 355.262 670.124 362.561 661.087 369.943L602.953 421.15L583.938 439.043C581.626 441.248 579.124 443.264 576.932 445.592C574.908 447.742 571.135 451.428 570.579 454.378C569.801 458.499 572.906 463.375 575.296 466.502C586.584 481.273 606.865 490.225 625.008 492.592C651.058 495.992 679.866 489.425 700.769 473.248C716.2 461.306 725.448 444.005 732.36 426.17C734.159 433.72 734.967 442.001 735.923 449.715C740.557 487.117 740.453 525.164 737.507 562.695C736.976 569.461 736.762 576.374 735.646 583.07C735.451 590.017 734.489 596.812 733.627 603.697L726 650.597L690.628 784.737L708.43 784.632L734.095 784.449L773.332 784.499L790.487 784.422L790.767 783.292C791.841 776.977 791.43 769.852 791.634 763.429C792.028 751.052 791.506 738.83 790.82 726.477C789.008 693.811 784.357 660.197 771.207 629.972C767.445 621.325 762.736 612.246 757.223 604.581C755.245 601.831 752.676 599.414 750.786 596.675C749.991 595.523 750.809 592.592 750.98 591.155L752.211 579.385C755.139 554.094 757.257 528.664 757.077 503.184C756.903 478.472 754.569 454.002 749.146 429.874L742.777 406.055C741.756 402.506 740.194 398.525 739.659 394.904C739.471 393.637 739.822 392.331 740.013 391.084C740.705 386.556 740.616 381.859 740.731 377.289C740.971 367.729 741.019 358.156 739.332 348.713C738.544 344.301 737.632 340.111 734.977 336.418L720.481 345.042C719.399 343.464 718.813 341.571 717.999 339.844L714.447 333.096C709.182 323.305 703.398 313.333 696.842 304.354C685.834 289.277 673.5 275.315 659.337 263.105C642.799 248.848 623.757 236.971 604.303 227.117L583.196 216.978C579.254 215.234 574.524 213.77 570.857 211.603C569.658 210.893 568.68 209.351 567.822 208.272C566.26 206.306 564.638 204.402 562.874 202.613C559.406 199.094 554.733 196.474 550.734 193.578C551.477 193.249 553.368 193.65 554.213 193.722C558.925 194.126 563.625 194.912 568.347 195.125C580.281 195.665 593.855 194.176 604.932 189.678C607.205 188.754 609.641 187.884 611.747 186.615C617.692 183.032 623.04 178.065 624.51 171.008C626.055 163.593 622.644 156.841 618.516 150.911C616.819 148.472 614.527 146.294 612.423 144.197C596.505 128.334 573.189 119.279 551.393 115.442C538.193 113.119 524.453 112.742 511.133 113.883C507.511 114.193 503.9 114.263 500.286 114.728C483.613 116.876 466.578 121.71 451.819 129.825C447.493 132.204 443.745 135.323 439.727 138.159C441.028 133.192 441.505 126.676 441.598 121.549C441.698 116.039 440.681 109.723 436.57 105.733C434.863 104.076 431.482 103.154 429.151 103.255C418.086 103.739 406.755 113.249 399.912 121.282C386.133 137.458 383.598 158.61 385.287 179.063L354.484 181.609C319.773 185.785 286.288 194.959 254.737 210.05ZM17.5912 784.496L48.3079 784.453L73.037 784.526C73.6329 762.176 76.4956 739.894 80.7928 717.969C93.7526 651.845 121.7 588.645 163.497 535.703C170.38 538.97 176.459 543.302 182.43 547.986C197.848 560.082 209.946 574.966 222.256 590.049C219.236 575.855 214.393 562.456 206.095 550.432C193.951 532.838 177.36 521.227 156.813 515.43C152.156 514.116 147.291 513.308 142.535 512.42C130.869 511.395 120.151 511.428 108.56 513.518C101.564 515.287 95.493 517.265 89.0032 520.505C90.091 508.049 93.6773 494.957 96.4716 482.737C108.797 428.837 125.98 375.842 154.121 327.971L162.075 315.327C163.721 312.812 165.318 309.994 167.448 307.873C166.998 308.976 166.694 309.959 166.484 311.133C167.227 310.973 167.902 309.957 168.407 309.391L175.101 301.575C181.828 293.9 189.268 286.923 196.801 280.055C198.286 278.18 198.096 272.852 197.926 270.482L198.078 269.909C199.314 264.656 196.466 256.15 193.731 251.776C182.716 261.5 172.875 272.648 163.791 284.168C120.725 338.783 98.2366 406.285 83.2972 473.333L75.4602 515.463L74.1885 525.611C74.0284 526.954 74.0471 528.806 73.6607 530.074C73.367 531.038 65.6303 537.705 64.3688 539.086C57.9562 546.108 52.2224 553.954 47.3024 562.087C34.0295 584.027 25.0747 607.97 18.298 632.617C9.66768 664.006 4.79985 697.196 2.81046 729.688L1.34188 784.37L17.5912 784.496ZM509.608 468.134C494.548 469.208 478.441 473.095 468.164 485.043C460.115 494.401 455.898 508.696 457.052 520.988C457.752 528.438 462.099 533.487 467.612 538.072C468.214 538.572 469.954 539.733 470.201 540.461C470.882 542.464 470.945 545.01 471.495 547.128C473.566 555.108 478.32 562.696 484.769 567.887C497.102 577.813 513.004 580.785 528.503 579.006C538.923 578.209 550.781 576.172 557.919 567.783C561.956 563.039 564.16 557.445 565.404 551.393C565.731 549.802 566.524 539.903 566.8 539.541C567.53 538.586 570.249 537.446 571.346 536.597C577.616 531.746 581.054 523.868 580.38 515.997C579.301 503.402 573.45 492.27 563.704 484.259C552.408 474.974 537.695 469.272 523.139 468.032C518.63 467.648 514.12 467.922 509.608 468.134ZM522.726 184.42L523.749 186.633C523.74 187.234 523.57 188.321 523.716 188.867C524.206 190.7 527.415 194.039 528.618 195.632C532.094 200.233 536.243 205.362 538.78 210.548C539.047 208.834 538.687 207.307 539.959 205.925C540.575 205.257 541.545 205.303 542.383 205.241C543.975 206.064 546.508 207.392 548.242 206.904L548.358 205.824C541.468 197.198 533.176 189.775 524.344 183.2C523.749 183.566 523.251 183.96 522.726 184.42ZM237.298 237.042C233.376 239.521 229.727 242.837 225.653 244.986C227.239 248.119 228.94 251.451 229.878 254.845L246.589 244.874L237.298 237.042Z"/>
	<path fill="#FAFAEF" d="M523.749 186.633C523.349 187.125 523.113 187.889 522.852 188.473L513.021 178.032C515.922 178.993 520.761 179.969 523.071 181.836L522.074 182.617L522.202 183.984L522.726 184.42L523.749 186.633Z"/>
	<path fill="#2E0805" d="M442.348 377.539C443.189 377.495 444.101 377.579 444.922 377.763C449.083 378.693 451.495 388.201 454.102 391.589C456.4 394.577 459.02 396.932 461.958 399.269C464.166 401.026 467.394 402.991 468.859 405.406C469.524 406.503 469.751 407.652 469.394 408.899C468.779 411.05 466.854 412.254 465.037 413.318C462.298 414.342 460.261 414.599 457.445 413.556C454.467 412.452 452.314 409.807 450.415 407.365C446.726 402.623 443.629 397.623 441.215 392.117C439.802 388.896 437.359 383.776 438.998 380.279C439.685 378.813 440.885 378.066 442.348 377.539Z"/>
	<path fill="#2E0805" d="M580.664 378.202L581.537 378.121C583.12 378.005 584.533 378.081 585.742 379.239C586.869 380.318 587.381 381.977 587.402 383.508C587.433 385.883 586.304 388.697 585.408 390.874C582.381 398.226 578.032 405.216 572.667 411.097C570.059 413.954 567.202 414.61 563.475 414.768C561.195 414.121 558.315 413.091 557.035 410.938C556.354 409.793 556.134 408.332 556.506 407.048C557.416 403.9 562.727 400.71 565.232 398.701C568.225 396.302 571.122 393.446 573.161 390.175C575.718 386.073 576.253 380.795 580.664 378.202Z"/>
	<path fill="#ED8950" d="M108.56 513.518C109.628 511.16 109.901 507.74 110.483 505.186L115.356 483.987C123.072 451.838 131.625 418.535 144.996 388.216C147.647 382.205 150.516 375.503 154.546 370.287C154.432 374.292 152.624 379.323 151.747 383.292L147.766 403.878C141.658 439.656 137.934 476.233 142.535 512.42C130.869 511.395 120.151 511.428 108.56 513.518Z"/>
	<path fill="#2E0805" d="M509.608 468.134C514.12 467.922 518.63 467.648 523.139 468.032C537.695 469.272 552.408 474.974 563.704 484.259C573.45 492.27 579.301 503.402 580.38 515.997C581.054 523.868 577.616 531.746 571.346 536.597C570.249 537.446 567.53 538.586 566.8 539.541C566.524 539.903 565.731 549.802 565.404 551.393C564.16 557.445 561.956 563.039 557.919 567.783C550.781 576.172 538.923 578.209 528.503 579.006C513.004 580.785 497.102 577.813 484.769 567.887C478.32 562.696 473.566 555.108 471.495 547.128C470.945 545.01 470.882 542.464 470.201 540.461C469.954 539.733 468.214 538.572 467.612 538.072C462.099 533.487 457.752 528.438 457.052 520.988C455.898 508.696 460.115 494.401 468.164 485.043C478.441 473.095 494.548 469.208 509.608 468.134ZM473.482 499.698C475.159 504.857 481.058 508.436 485.635 510.846C490.362 513.335 496.285 514.539 501.52 515.325C515.62 517.441 529.874 516.403 543.963 514.7L554.266 513.243C555.737 513.04 557.27 512.606 558.748 512.623C558.325 510.571 557.587 508.62 556.887 506.65L557.514 505.664C558.461 504.298 559.512 503.47 561.254 503.315L561.719 503.316C562.402 502.36 562.17 501.159 562.195 499.998L561.668 499.612C558.864 495.036 553.564 491.291 548.808 488.975C547.384 488.281 545.85 487.873 544.439 487.177L544.041 486.965C540.825 484.034 533.534 482.903 529.336 481.925C527.191 481.087 524.533 480.886 522.247 480.702C511.883 479.864 499.751 481.75 490.231 485.913C483.201 488.988 477.889 493.449 473.482 499.698ZM562.195 499.998C562.17 501.159 562.402 502.36 561.719 503.316L561.254 503.315C559.512 503.47 558.461 504.298 557.514 505.664L556.887 506.65C557.587 508.62 558.325 510.571 558.748 512.623C559.346 517.968 559.043 522.423 557.345 527.539C557.002 528.572 555.507 531.484 555.947 532.268C557.972 531.215 560.148 529.901 561.914 528.449C565.4 525.585 567.647 521.857 567.972 517.299C568.398 511.339 566.205 504.458 562.195 499.998Z"/>
	<path fill="#FAFAEF" d="M549.189 549.927L550.586 550.484C551.203 549.835 551.764 549.205 552.316 548.498C552.67 548.046 552.897 547.745 553.487 547.654L553.753 547.656C553.199 553.204 549.942 558.055 545.684 561.479L544.975 562.015C544.806 560.188 546.543 557.442 547.032 555.523C547.478 553.774 547.663 551.989 547.854 550.199L549.189 549.927Z"/>
	<path fill="#FEFFED" fill-opacity="0.90980393" d="M562.195 499.998C566.205 504.458 568.398 511.339 567.972 517.299C567.647 521.857 565.4 525.585 561.914 528.449C560.148 529.901 557.972 531.215 555.947 532.268C555.507 531.484 557.002 528.572 557.345 527.539C559.043 522.423 559.346 517.968 558.748 512.623C558.325 510.571 557.587 508.62 556.887 506.65L557.514 505.664C558.461 504.298 559.512 503.47 561.254 503.315L561.719 503.316C562.402 502.36 562.17 501.159 562.195 499.998Z"/>
	<path fill="#DF553D" d="M527.182 549.425C532.405 549.025 537.576 548.468 542.714 547.415C544.365 547.076 546.06 546.755 547.679 546.289C548.856 545.95 550.06 545.123 551.287 545.508C550.592 546.127 549.953 546.534 549.219 547.074L548.242 547.921L548.162 549.217L549.189 549.927L547.854 550.199C547.663 551.989 547.478 553.774 547.032 555.523C546.543 557.442 544.806 560.188 544.975 562.015C538.605 566.587 529.199 567.553 521.622 567.741L521.61 567.192C521.117 561.432 524.627 554.441 527.182 549.425Z"/>
	<path fill="#D3302D" d="M521.622 567.741C515.064 567.692 510.017 567.315 503.784 565.046C493.563 561.326 487.53 554.81 483.017 545.143C497.749 549.384 511.974 549.717 527.182 549.425C524.627 554.441 521.117 561.432 521.61 567.192L521.622 567.741Z"/>
	<path fill="#D3302D" d="M555.947 532.268L549.602 534.611C540.729 537.241 531.645 537.718 522.461 537.971C508.001 538.369 492.277 538.404 479.239 531.283C474.7 528.805 471.222 525.309 469.803 520.213C467.909 513.413 470.121 505.646 473.482 499.698C475.159 504.857 481.058 508.436 485.635 510.846C490.362 513.335 496.285 514.539 501.52 515.325C515.62 517.441 529.874 516.403 543.963 514.7L554.266 513.243C555.737 513.04 557.27 512.606 558.748 512.623C559.346 517.968 559.043 522.423 557.345 527.539C557.002 528.572 555.507 531.484 555.947 532.268Z"/>
	<path fill="#DF553D" d="M473.482 499.698C477.889 493.449 483.201 488.988 490.231 485.913C499.751 481.75 511.883 479.864 522.247 480.702C524.533 480.886 527.191 481.087 529.336 481.925C533.534 482.903 540.825 484.034 544.041 486.965L544.439 487.177C545.85 487.873 547.384 488.281 548.808 488.975C553.564 491.291 558.864 495.036 561.668 499.612L562.195 499.998C562.17 501.159 562.402 502.36 561.719 503.316L561.254 503.315C559.512 503.47 558.461 504.298 557.514 505.664L556.887 506.65C557.587 508.62 558.325 510.571 558.748 512.623C557.27 512.606 555.737 513.04 554.266 513.243L543.963 514.7C529.874 516.403 515.62 517.441 501.52 515.325C496.285 514.539 490.362 513.335 485.635 510.846C481.058 508.436 475.159 504.857 473.482 499.698ZM542.399 489.303L542.852 489.557C543.79 490.09 544.579 490.393 545.048 491.406C545.904 493.254 548.293 495.02 549.813 496.389C551.334 497.759 553.702 501.837 555.469 502.375C556.639 501.472 556.861 501.317 558.398 501.106C559.529 502.048 559.719 501.932 561.133 501.984C561.422 501.183 561.555 500.456 561.668 499.612C558.864 495.036 553.564 491.291 548.808 488.975C547.384 488.281 545.85 487.873 544.439 487.177L544.041 486.965C542.584 486.562 541.775 486.142 540.293 486.523C540.745 487.624 541.616 488.419 542.399 489.303Z"/>
	<path fill="#FAFAEF" d="M529.336 481.925C533.534 482.903 540.825 484.034 544.041 486.965C542.584 486.562 541.775 486.142 540.293 486.523C540.745 487.624 541.616 488.419 542.399 489.303L542.108 489.594C541.305 489.402 541.552 489.537 540.935 489.139L532.705 484.305C531.506 483.643 529.968 483.144 529.336 481.925Z"/>
	<path fill="#2E0805" d="M278.191 334.534C284.63 337.555 290.677 341.375 296.729 345.093L328.584 364.881C332.564 367.302 336.445 370.005 340.547 372.204C339.073 370.37 336.953 368.837 335.226 367.202C330.032 362.285 324.86 357.203 320.166 351.803C318.007 349.319 315.444 346.614 314.632 343.359C315.155 342.738 315.019 342.622 315.918 342.565C319.052 342.365 323.954 345.767 326.635 347.338C345.931 358.643 363.608 373.14 380.886 387.277L434.92 432.931C440.852 438.111 446.896 442.847 452.498 448.422C453.965 450.055 455.955 452.028 456.601 454.156C457.421 456.86 455.906 460.356 454.527 462.671C446.142 476.744 426.256 486.078 410.908 489.885C382.819 496.853 348.095 491.736 323.205 476.805C298.596 462.043 283.637 435.41 276.908 408.157C273.084 392.667 271.576 376.789 272.243 360.857C272.619 351.856 273.455 342.401 278.191 334.534Z"/>
	<path fill="#FEFEED" d="M290.696 359.961C291.616 359.891 291.216 359.79 291.918 360.156C291.192 360.652 291.529 360.34 290.946 361.133L291.406 361.828C292.391 361.544 292.428 361.573 293.013 360.742L292.383 360.387L292.773 360.276C296.948 361.489 300.975 364.168 304.716 366.337L324.734 378.428L381.767 415.561L413.247 437.107L432.221 450.521C436.237 453.512 440.337 456.441 443.835 460.043C441.737 463.759 436.255 465.933 432.561 467.688C422.458 472.283 411.432 475.602 400.451 477.257C376.435 480.875 349.11 478.543 328.994 463.646C323.636 459.678 318.613 455.509 314.154 450.533C300.344 435.121 292.122 414.28 289.174 393.985C287.964 385.657 287.569 377.444 288.299 369.057C288.562 366.039 288.837 362.451 290.696 359.961Z"/>
	<path fill="#2E0805" d="M17.5912 784.496L1.34188 784.37L2.81046 729.688C4.79985 697.196 9.66768 664.006 18.298 632.617C25.0747 607.97 34.0295 584.027 47.3024 562.087C52.2224 553.954 57.9562 546.108 64.3688 539.086C65.6303 537.705 73.367 531.038 73.6607 530.074C74.0471 528.806 74.0284 526.954 74.1885 525.611L75.4602 515.463L83.2972 473.333C98.2366 406.285 120.725 338.783 163.791 284.168C172.875 272.648 182.716 261.5 193.731 251.776C196.466 256.15 199.314 264.656 198.078 269.909L197.926 270.482C198.096 272.852 198.286 278.18 196.801 280.055C189.268 286.923 181.828 293.9 175.101 301.575L168.407 309.391C167.902 309.957 167.227 310.973 166.484 311.133C166.694 309.959 166.998 308.976 167.448 307.873C165.318 309.994 163.721 312.812 162.075 315.327L154.121 327.971C125.98 375.842 108.797 428.837 96.4716 482.737C93.6773 494.957 90.091 508.049 89.0032 520.505C95.493 517.265 101.564 515.287 108.56 513.518C120.151 511.428 130.869 511.395 142.535 512.42C147.291 513.308 152.156 514.116 156.813 515.43C177.36 521.227 193.951 532.838 206.095 550.432C214.393 562.456 219.236 575.855 222.256 590.049C209.946 574.966 197.848 560.082 182.43 547.986C176.459 543.302 170.38 538.97 163.497 535.703C121.7 588.645 93.7526 651.845 80.7928 717.969C76.4956 739.894 73.6329 762.176 73.037 784.526L48.3079 784.453L17.5912 784.496ZM35.0251 640.476C35.4869 640.008 35.7092 639.656 36.0029 639.057L39.2969 632.843C43.4044 623.386 49.054 614.013 54.6293 605.341C69.8238 581.705 88.0604 559.595 110.871 542.943C115.775 539.363 121.076 535.933 126.428 533.053C129.143 531.592 132.21 530.715 134.713 528.908L134.461 528.333C115.29 526.725 94.6186 532.795 79.8031 545.274C60.0962 561.873 50.0837 587.747 42.3988 611.648C39.3881 621.012 36.3961 630.718 35.0251 640.476ZM197.926 270.482C193.714 274.226 190.228 278.472 186.626 282.784L174.385 298.104C173.057 299.901 171.699 301.695 170.508 303.586C169.575 305.065 168.82 306.701 167.507 307.884L167.448 307.873C166.998 308.976 166.694 309.959 166.484 311.133C167.227 310.973 167.902 309.957 168.407 309.391L175.101 301.575C181.828 293.9 189.268 286.923 196.801 280.055C198.286 278.18 198.096 272.852 197.926 270.482Z"/>
	<path fill="#FDBA64" d="M39.2969 632.843C39.4793 633.161 39.7403 633.444 39.8443 633.796C40.1407 634.797 39.5581 637.435 39.4698 638.623L38.3051 656.25L37.5162 679.594C37.3116 705.613 38.3966 731.66 42.5741 757.381L45.8984 774.931C46.6422 778.11 47.7071 781.246 48.3079 784.453L17.5912 784.496C19.2371 740.964 23.0502 697.171 31.7391 654.435L33.6374 645.25C33.9635 643.659 34.1341 641.858 35.0251 640.476C35.4869 640.008 35.7092 639.656 36.0029 639.057L39.2969 632.843Z"/>
	<path fill="#ED8950" d="M134.461 528.333C136.2 527.979 137.791 528.427 139.524 528.613C148.115 529.538 155.74 531.92 163.497 535.703C121.7 588.645 93.7526 651.845 80.7928 717.969C76.4956 739.894 73.6329 762.176 73.037 784.526L48.3079 784.453C47.7071 781.246 46.6422 778.11 45.8984 774.931L42.5741 757.381C38.3966 731.66 37.3116 705.613 37.5162 679.594L38.3051 656.25L39.4698 638.623C39.5581 637.435 40.1407 634.797 39.8443 633.796C39.7403 633.444 39.4793 633.161 39.2969 632.843C43.4044 623.386 49.054 614.013 54.6293 605.341C69.8238 581.705 88.0604 559.595 110.871 542.943C115.775 539.363 121.076 535.933 126.428 533.053C129.143 531.592 132.21 530.715 134.713 528.908L134.461 528.333Z"/>
	<path fill="#ED8950" d="M234.756 646.741C235.247 643.551 233.935 639.161 233.354 635.976L228.444 612C230.321 613.632 231.918 617.382 233.202 619.531L240.153 630.578L248.501 642.502C266.527 668.046 289.235 690.855 315.32 708.162C324.988 714.576 335.231 720.087 345.634 725.202C364.234 734.347 384.77 740.568 404.969 744.98C434.442 751.418 464.185 754.279 494.293 755.408C512.147 756.078 530.344 756.413 548.118 754.37C564.363 752.502 579.565 748.817 595.021 743.532C602.959 740.817 610.542 737.231 617.98 733.386C663.093 710.06 696.661 670.222 718.684 625.013C722.842 616.478 726.68 607.678 729.96 598.769C731.776 593.838 733.083 588.21 735.41 583.534L735.646 583.07C735.451 590.017 734.489 596.812 733.627 603.697L726 650.597L690.628 784.737L660.594 784.78L646.969 784.789C641.947 784.269 636.472 784.7 631.395 784.714L601.587 784.748L509.168 784.801C505.891 784.395 502.083 784.799 498.749 784.814C495.979 784.414 492.688 784.745 489.871 784.744L471.951 784.729L415.501 784.782L285.167 784.662L257.193 784.732L234.862 784.642C234.503 782.067 234.828 779.272 234.966 776.68L235.649 764.256L237.002 733.904L236.431 665.314L234.756 646.741Z"/>
	<path fill="#FDBA64" d="M249.217 704.807L249.439 701.758C250.978 703.312 251.516 706.154 252.143 708.225L256.256 722.07C260.67 736.394 265.675 750.543 272.291 764.013C274.733 768.984 277.494 773.768 280.581 778.367C281.517 779.761 285.075 783.236 285.167 784.662L257.193 784.732L249.217 704.807Z"/>
	<path fill="#FDBA64" d="M660.594 784.78C667.291 775.662 673.891 766.67 679.767 756.987C693.363 734.584 704.06 709.677 712.816 685.019L722.92 654.358C723.395 652.935 724.058 650.013 725.304 649.219L726 650.597L690.628 784.737L660.594 784.78Z"/>
	<path fill="#2E0805" d="M234.756 646.741C236.063 647.197 236.482 647.39 237.146 648.633C239.189 652.458 240.185 657.18 241.219 661.377C243.796 671.839 245.576 682.529 247.286 693.164C247.893 696.943 248.234 701.116 249.217 704.807L257.193 784.732L234.862 784.642C234.503 782.067 234.828 779.272 234.966 776.68L235.649 764.256L237.002 733.904L236.431 665.314L234.756 646.741Z"/>
	<path fill="#2E0805" d="M254.737 210.05C286.288 194.959 319.773 185.785 354.484 181.609L385.287 179.063C383.598 158.61 386.133 137.458 399.912 121.282C406.755 113.249 418.086 103.739 429.151 103.255C431.482 103.154 434.863 104.076 436.57 105.733C440.681 109.723 441.698 116.039 441.598 121.549C441.505 126.676 441.028 133.192 439.727 138.159C443.745 135.323 447.493 132.204 451.819 129.825C466.578 121.71 483.613 116.876 500.286 114.728C503.9 114.263 507.511 114.193 511.133 113.883C524.453 112.742 538.193 113.119 551.393 115.442C573.189 119.279 596.505 128.334 612.423 144.197C614.527 146.294 616.819 148.472 618.516 150.911C622.644 156.841 626.055 163.593 624.51 171.008C623.04 178.065 617.692 183.032 611.747 186.615C609.641 187.884 607.205 188.754 604.932 189.678C593.855 194.176 580.281 195.665 568.347 195.125C563.625 194.912 558.925 194.126 554.213 193.722C553.368 193.65 551.477 193.249 550.734 193.578C554.733 196.474 559.406 199.094 562.874 202.613C564.638 204.402 566.26 206.306 567.822 208.272C568.68 209.351 569.658 210.893 570.857 211.603C574.524 213.77 579.254 215.234 583.196 216.978L604.303 227.117C623.757 236.971 642.799 248.848 659.337 263.105C673.5 275.315 685.834 289.277 696.842 304.354C703.398 313.333 709.182 323.305 714.447 333.096L717.999 339.844C718.813 341.571 719.399 343.464 720.481 345.042L734.977 336.418C737.632 340.111 738.544 344.301 739.332 348.713C741.019 358.156 740.971 367.729 740.731 377.289C740.616 381.859 740.705 386.556 740.013 391.084C739.822 392.331 739.471 393.637 739.659 394.904C740.194 398.525 741.756 402.506 742.777 406.055L749.146 429.874C754.569 454.002 756.903 478.472 757.077 503.184C757.257 528.664 755.139 554.094 752.211 579.385L750.98 591.155C750.809 592.592 749.991 595.523 750.786 596.675C752.676 599.414 755.245 601.831 757.223 604.581C762.736 612.246 767.445 621.325 771.207 629.972C784.357 660.197 789.008 693.811 790.82 726.477C791.506 738.83 792.028 751.052 791.634 763.429C791.43 769.852 791.841 776.977 790.767 783.292L790.487 784.422L773.332 784.499L734.095 784.449L708.43 784.632L690.628 784.737L726 650.597L733.627 603.697C734.489 596.812 735.451 590.017 735.646 583.07C736.762 576.374 736.976 569.461 737.507 562.695C740.453 525.164 740.557 487.117 735.923 449.715C734.967 442.001 734.159 433.72 732.36 426.17C725.448 444.005 716.2 461.306 700.769 473.248C679.866 489.425 651.058 495.992 625.008 492.592C606.865 490.225 586.584 481.273 575.296 466.502C572.906 463.375 569.801 458.499 570.579 454.378C571.135 451.428 574.908 447.742 576.932 445.592C579.124 443.264 581.626 441.248 583.938 439.043L602.953 421.15L661.087 369.943C670.124 362.561 679.543 355.262 689.338 348.914C691.975 347.205 697.905 343.269 700.997 343.928L701.357 344.727C700.461 348.066 697.839 351.056 695.685 353.689C689.907 360.751 683.2 366.984 677.098 373.754C679.775 372.651 682.695 369.974 685.175 368.344L708.976 352.492C702.558 340.009 696.279 326.918 687.396 315.932C687.215 316.574 687.056 317.043 687.14 317.719C687.228 318.433 687.26 317.914 687.107 318.725C686.171 318.614 685.614 317.725 684.962 317.061C669.687 301.494 652.892 288.167 634.617 276.271L607.899 260.275C607.257 260.191 605.984 259.299 605.377 258.984L599.165 255.856L585.745 249.586C583.009 248.371 580.05 247.364 577.54 245.735C574.504 251.565 570.521 255.891 564.075 257.874C558.02 259.738 552.135 259.61 545.933 258.768C530.256 256.639 515.434 249.547 501.65 242.099C494.211 238.08 486.17 233.863 479.469 228.703C500.482 235.959 520.404 244.425 542.759 246.92C542.873 246.624 542.828 246.803 542.808 246.315L542.787 245.893C543.404 245.126 544.13 244.267 544.533 243.361L544.73 242.773C548.078 233.86 545.202 225.008 541.562 216.681C540.743 214.807 539.423 212.956 538.875 210.997L538.78 210.548C539.047 208.834 538.687 207.307 539.959 205.925C540.575 205.257 541.545 205.303 542.383 205.241C543.975 206.064 546.508 207.392 548.242 206.904L548.358 205.824C541.468 197.198 533.176 189.775 524.344 183.2L523.633 182.045C524.31 181.262 525.67 181.739 526.676 181.863C544.507 184.07 563.75 186.327 581.641 183.613C586.987 182.802 592.372 181.792 597.233 179.311C601.553 177.106 605.779 173.878 607.181 168.996C608.325 165.011 607.649 161.142 605.723 157.523C602.801 152.036 597.161 147.659 592.043 144.353C589.686 142.832 587.094 141.219 584.398 140.392C582.953 141.37 582.452 141.765 580.664 141.775C578.696 141.787 576.553 141.228 574.603 140.893L561.753 138.626L532.287 135.26L529.6 135.147L516.708 135.051C515.805 142.535 510.346 148.548 504.606 153.057C496.835 159.16 487.768 163.885 478.602 167.533L468.016 171.472C466.542 172.033 464.642 172.512 463.411 173.463C470.727 174.798 480.406 179.171 484.895 185.353C486.935 188.164 488.13 191.512 487.375 194.988C486.493 199.053 482.942 202.451 479.492 204.529C473.935 207.876 467.475 209.512 461.133 210.555C445.226 213.171 429.907 211.468 413.988 210.511L386.519 209.439L368.708 209.287C366.518 209.276 363.607 209.64 361.523 209.171C360.832 209.015 360.586 208.635 359.961 208.402C359.642 208.284 359.169 208.304 358.826 208.302L360.145 208.086L359.104 207.625C339.517 210.283 320.071 214.972 301.286 221.116L283.131 227.685L267.953 219.297C263.179 217.043 258.524 213.72 254.737 210.05ZM512.738 135.121L511.746 135.177L499.466 136.505C496.851 136.785 494.1 137.232 491.478 136.914L491.353 135.991C490.315 135.358 490.061 135.149 488.799 135.352C488.159 135.454 487.492 135.855 487.048 136.294C486.169 137.161 485.233 136.859 484.29 138.045L484.16 138.53L465.906 143.683L456.196 147.26C455.021 147.709 453.373 148.629 452.148 148.751C451.29 148.837 450.551 148.449 449.691 148.542C444.169 149.925 441.158 152.662 437.193 156.565L429.048 162.18C428.863 163.091 428.296 163.651 427.539 164.213L426.754 164.648L425.781 165.432C422.236 168.241 419.86 171.083 417.536 175.01C418.123 169.952 419.636 159.922 416.125 155.774C415.328 154.832 414.348 153.978 413.086 153.835C410.636 153.559 408.144 154.758 406.369 156.372C403.693 158.805 402.393 162.3 401.629 165.733C401.459 166.493 401.141 167.156 400.818 167.861C400.579 166.709 399.869 161.597 399.172 161.133C399.069 161.995 398.981 162.591 398.658 163.406C398.205 164.551 398.018 165.741 397.793 166.947L398.97 180.445L398.937 181.15C398.849 184.148 400.186 187.644 400.636 190.651C399.168 190.868 393.684 191.107 392.805 191.807L392.578 192.517L391.571 193.164L391.556 193.55C391.512 194.564 391.439 195.331 391.052 196.289C391.932 198.351 392.945 199.872 392.307 202.148L391.992 203.463C391.203 203.812 390.472 203.993 389.627 204.166L364.023 206.803C362.811 206.972 360.068 207.056 359.104 207.625L360.145 208.086L358.826 208.302C359.169 208.304 359.642 208.284 359.961 208.402C360.586 208.635 360.832 209.015 361.523 209.171C363.607 209.64 366.518 209.276 368.708 209.287L386.519 209.439L413.988 210.511C429.907 211.468 445.226 213.171 461.133 210.555C467.475 209.512 473.935 207.876 479.492 204.529C482.942 202.451 486.493 199.053 487.375 194.988C488.13 191.512 486.935 188.164 484.895 185.353C480.406 179.171 470.727 174.798 463.411 173.463C464.642 172.512 466.542 172.033 468.016 171.472L478.602 167.533C487.768 163.885 496.835 159.16 504.606 153.057C510.346 148.548 515.805 142.535 516.708 135.051L512.738 135.121ZM746.493 658.723L750.03 662.77C748.51 691.606 743.702 720.123 738.178 748.426L732.59 774.365C731.83 777.629 731.27 780.965 730.328 784.18L734.095 784.449L773.332 784.499C774.669 753.125 775.454 720.553 769.281 689.627L764.34 667.59C764.437 664.967 762.255 659.906 761.328 657.346L760.321 657.227C759.12 658.339 758.026 659.607 756.25 659.408C754.441 659.205 752.664 659.502 750.977 658.833L751.076 659.766C749.389 659.492 749.451 657.315 747.289 657.617L746.493 658.723ZM392.805 191.807L362.286 193.585C341.119 195.469 319.294 199.971 299.068 206.599C292.064 208.894 284.985 211.53 278.24 214.497C274.851 215.987 271.406 218.112 267.953 219.297L283.131 227.685L301.286 221.116C320.071 214.972 339.517 210.283 359.104 207.625C360.068 207.056 362.811 206.972 364.023 206.803L389.627 204.166C390.472 203.993 391.203 203.812 391.992 203.463L392.307 202.148C392.945 199.872 391.932 198.351 391.052 196.289C391.439 195.331 391.512 194.564 391.556 193.55L391.571 193.164L392.578 192.517L392.805 191.807ZM611.009 246.615C609.691 247.13 608.582 247.162 607.177 247.188L607.122 247.367L608.398 247.75C609.29 250.465 610.211 249.514 611.696 251.195C612.216 251.785 612.708 252.98 613.11 253.687C613.579 253.892 614.367 254.378 614.844 254.444C616.029 254.609 616.11 253.781 617.246 254.688C617.261 256.049 616.928 256.526 615.997 257.549L615.122 258.373C614.37 259.24 614.948 258.705 614.355 259.586C613.852 260.334 612.725 260.552 611.914 260.789L611.511 260.619C610.806 260.361 611.04 260.45 610.253 260.38C609.521 260.316 609.225 260.195 608.604 259.831L607.899 260.275L634.617 276.271C652.892 288.167 669.687 301.494 684.962 317.061C685.614 317.725 686.171 318.614 687.107 318.725C687.26 317.914 687.228 318.433 687.14 317.719C687.056 317.043 687.215 316.574 687.396 315.932C671.24 292.151 649.738 272.274 626.051 256.153C621.239 252.877 616.198 249.241 611.009 246.615ZM538.78 210.548L538.875 210.997C539.423 212.956 540.743 214.807 541.562 216.681C545.202 225.008 548.078 233.86 544.73 242.773L544.533 243.361C544.13 244.267 543.404 245.126 542.787 245.893L542.808 246.315C542.828 246.803 542.873 246.624 542.759 246.92C543.945 247.168 545.091 247.231 546.3 247.255C550.589 247.343 557.219 246.678 560.309 243.404C562.454 241.131 563.451 236.83 563.301 233.789C562.91 225.846 558.076 217.987 553.4 211.843C551.829 209.777 550.279 207.574 548.358 205.824L548.242 206.904C546.508 207.392 543.975 206.064 542.383 205.241C541.545 205.303 540.575 205.257 539.959 205.925C538.687 207.307 539.047 208.834 538.78 210.548ZM580.062 236.264L579.103 235.441C579.042 238.884 578.651 242.465 577.54 245.735C580.05 247.364 583.009 248.371 585.745 249.586L599.165 255.856L605.377 258.984C605.984 259.299 607.257 260.191 607.899 260.275L608.604 259.831C609.225 260.195 609.521 260.316 610.253 260.38C611.04 260.45 610.806 260.361 611.511 260.619L611.914 260.789C612.725 260.552 613.852 260.334 614.355 259.586C614.948 258.705 614.37 259.24 615.122 258.373L615.997 257.549C616.928 256.526 617.261 256.049 617.246 254.688C616.11 253.781 616.029 254.609 614.844 254.444C614.367 254.378 613.579 253.892 613.11 253.687C612.708 252.98 612.216 251.785 611.696 251.195C610.211 249.514 609.29 250.465 608.398 247.75L607.122 247.367C605.858 247.607 604.805 247.714 603.52 247.569C602.885 247.498 602.589 246.776 602.208 246.289L602.539 244.922L601.953 244.108L600.565 243.919L599.245 243.292C597.817 242.496 597.949 242.373 597.516 240.82C595.783 239.479 595.086 240.459 593.254 240.133C591.613 239.841 591.129 239.155 590.245 237.794L590.039 237.473C589.069 237.141 588.106 237.34 587.109 237.447C586.169 236.843 585.95 236.718 585.434 235.742C584.366 235.042 583.992 234.611 582.617 234.786C581.61 234.914 580.679 235.49 580.062 236.264ZM527.452 126.153L524.309 126.437C525.323 126.921 526.255 126.989 527.346 127.152C528.114 127.268 527.818 127.203 528.604 127.539L528.711 128.066C530.164 128.671 530.196 128.536 530.854 130.078L530.717 130.594C530.557 131.393 530.733 131.634 530.935 132.375C531.142 133.134 530.888 133.74 530.664 134.464L532.287 135.26L561.753 138.626L574.603 140.893C576.553 141.228 578.696 141.787 580.664 141.775C582.452 141.765 582.953 141.37 584.398 140.392C572.512 133.663 558.059 130.058 544.648 127.966C538.844 127.061 533.346 126.23 527.452 126.153ZM430.108 159.997L429.048 162.18L437.193 156.565C441.158 152.662 444.169 149.925 449.691 148.542C450.551 148.449 451.29 148.837 452.148 148.751C453.373 148.629 455.021 147.709 456.196 147.26L465.906 143.683L484.16 138.53L484.29 138.045C483.321 136.829 483.801 132.038 483.793 130.273L482.912 129.806C468.168 133.51 453.529 139.196 441.992 149.421L434.275 156.462C433.018 157.638 431.675 159.268 430.108 159.997ZM744.012 641.136C743.837 641.931 743.638 642.715 743.554 643.525L742.391 649.905L741.516 654.177L746.493 658.723L747.289 657.617C749.451 657.315 749.389 659.492 751.076 659.766L750.977 658.833C752.664 659.502 754.441 659.205 756.25 659.408C758.026 659.607 759.12 658.339 760.321 657.227L761.328 657.346C760.054 653.043 758.278 648.75 756.471 644.648C755.647 642.778 754.961 640.785 753.734 639.137L753.212 639.717L752.841 639.555C752.138 639.282 752.569 639.43 751.864 639.357C750.728 639.239 749.062 637.904 748.053 637.306C746.937 639.371 745.959 640.814 744.304 642.473L744.012 641.136ZM482.912 129.806L483.793 130.273C483.801 132.038 483.321 136.829 484.29 138.045C485.233 136.859 486.169 137.161 487.048 136.294C487.492 135.855 488.159 135.454 488.799 135.352C490.061 135.149 490.315 135.358 491.353 135.991L491.478 136.914C494.1 137.232 496.851 136.785 499.466 136.505L511.746 135.177L511.903 134.632C512.161 132.021 511.811 128.777 511.808 126.083L506.467 126.114C498.314 126.738 490.841 127.828 482.912 129.806ZM506.467 126.114L511.808 126.083C511.811 128.777 512.161 132.021 511.903 134.632L511.746 135.177L512.738 135.121L516.708 135.051L529.6 135.147L532.287 135.26L530.664 134.464C530.888 133.74 531.142 133.134 530.935 132.375C530.733 131.634 530.557 131.393 530.717 130.594L530.854 130.078C530.196 128.536 530.164 128.671 528.711 128.066L528.604 127.539C527.818 127.203 528.114 127.268 527.346 127.152C526.255 126.989 525.323 126.921 524.309 126.437L527.452 126.153C524.753 125.622 521.783 125.817 519.035 125.784C514.854 125.733 510.616 125.513 506.467 126.114ZM579.103 235.441L580.062 236.264C580.679 235.49 581.61 234.914 582.617 234.786C583.992 234.611 584.366 235.042 585.434 235.742C585.95 236.718 586.169 236.843 587.109 237.447C588.106 237.34 589.069 237.141 590.039 237.473L590.245 237.794C591.129 239.155 591.613 239.841 593.254 240.133C595.086 240.459 595.783 239.479 597.516 240.82C597.949 242.373 597.817 242.496 599.245 243.292L600.565 243.919L601.953 244.108L602.539 244.922L602.208 246.289C602.589 246.776 602.885 247.498 603.52 247.569C604.805 247.714 605.858 247.607 607.122 247.367L607.177 247.188C608.582 247.162 609.691 247.13 611.009 246.615C608.322 244.583 605.061 243.035 602.096 241.427L584.502 232.382C582.984 231.646 580.066 229.727 578.446 229.69L579.103 235.441ZM744.012 641.136L744.304 642.473C745.959 640.814 746.937 639.371 748.053 637.306C749.062 637.904 750.728 639.239 751.864 639.357C752.569 639.43 752.138 639.282 752.841 639.555L753.212 639.717L753.734 639.137C751.948 635.332 750.158 631.818 747.662 628.428C747.289 627.922 746.768 626.958 746.194 626.712L744.012 641.136Z"/>
	<path fill="#FEFFED" fill-opacity="0.21960784" d="M506.467 126.114C510.616 125.513 514.854 125.733 519.035 125.784C521.783 125.817 524.753 125.622 527.452 126.153L524.309 126.437C525.323 126.921 526.255 126.989 527.346 127.152C528.114 127.268 527.818 127.203 528.604 127.539L528.711 128.066C530.164 128.671 530.196 128.536 530.854 130.078L530.717 130.594C530.557 131.393 530.733 131.634 530.935 132.375C531.142 133.134 530.888 133.74 530.664 134.464L532.287 135.26L529.6 135.147L516.708 135.051L512.738 135.121L511.746 135.177L511.903 134.632C512.161 132.021 511.811 128.777 511.808 126.083L506.467 126.114ZM512.738 135.121L516.708 135.051L529.6 135.147C528.751 134.494 528.217 133.5 527.63 132.617C524.877 131.796 519.837 131.079 517.189 132.486L516.996 133.203L516.406 133.439L512.738 135.121Z"/>
	<path fill="#FAFAEF" fill-opacity="0.28627452" d="M512.738 135.121L516.406 133.439L516.996 133.203L517.189 132.486C519.837 131.079 524.877 131.796 527.63 132.617C528.217 133.5 528.751 134.494 529.6 135.147L516.708 135.051L512.738 135.121Z"/>
	<path fill="#FAFAEF" fill-opacity="0.0078431377" d="M482.912 129.806C490.841 127.828 498.314 126.738 506.467 126.114L511.808 126.083C511.811 128.777 512.161 132.021 511.903 134.632L511.746 135.177L499.466 136.505C496.851 136.785 494.1 137.232 491.478 136.914L491.353 135.991C490.315 135.358 490.061 135.149 488.799 135.352C488.159 135.454 487.492 135.855 487.048 136.294C486.169 137.161 485.233 136.859 484.29 138.045C483.321 136.829 483.801 132.038 483.793 130.273L482.912 129.806Z"/>
	<path fill="#FEFEED" fill-opacity="0.51372552" d="M744.012 641.136L744.304 642.473C745.959 640.814 746.937 639.371 748.053 637.306C749.062 637.904 750.728 639.239 751.864 639.357C752.569 639.43 752.138 639.282 752.841 639.555L753.212 639.717L753.734 639.137C754.961 640.785 755.647 642.778 756.471 644.648C758.278 648.75 760.054 653.043 761.328 657.346L760.321 657.227C759.12 658.339 758.026 659.607 756.25 659.408C754.441 659.205 752.664 659.502 750.977 658.833L751.076 659.766C749.389 659.492 749.451 657.315 747.289 657.617L746.493 658.723L741.516 654.177L742.391 649.905L743.554 643.525C743.638 642.715 743.837 641.931 744.012 641.136ZM743.554 643.525L742.391 649.905C743.062 650.783 743.14 651.262 743.309 652.295C743.564 653.865 744.203 654.409 745.413 655.284C745.486 654.789 745.571 654.557 745.935 654.204L746.634 653.533C747.446 652.671 747.821 651.552 747.737 650.377C747.631 648.901 746.521 648.217 745.508 647.31L744.558 646.458L743.945 646.246L743.554 643.525Z"/>
	<path fill="#FEFFED" fill-opacity="0.7019608" d="M743.554 643.525L743.945 646.246L744.558 646.458L745.508 647.31C746.521 648.217 747.631 648.901 747.737 650.377C747.821 651.552 747.446 652.671 746.634 653.533L745.935 654.204C745.571 654.557 745.486 654.789 745.413 655.284C744.203 654.409 743.564 653.865 743.309 652.295C743.14 651.262 743.062 650.783 742.391 649.905L743.554 643.525Z"/>
	<defs>
		<linearGradient id="gradient_3" gradientUnits="userSpaceOnUse" x1="592.46899" y1="255.767" x2="601.47998" y2="243.97301">
			<stop offset="0" stop-color="#FFFFF1" stop-opacity="0"/>
			<stop offset="1" stop-color="#FFFFEB" stop-opacity="0.21176471"/>
		</linearGradient>
	</defs>
	<path fill="url(#gradient_3)" d="M580.062 236.264C580.679 235.49 581.61 234.914 582.617 234.786C583.992 234.611 584.366 235.042 585.434 235.742C585.95 236.718 586.169 236.843 587.109 237.447C588.106 237.34 589.069 237.141 590.039 237.473L590.245 237.794C591.129 239.155 591.613 239.841 593.254 240.133C595.086 240.459 595.783 239.479 597.516 240.82C597.949 242.373 597.817 242.496 599.245 243.292L600.565 243.919L601.953 244.108L602.539 244.922L602.208 246.289C602.589 246.776 602.885 247.498 603.52 247.569C604.805 247.714 605.858 247.607 607.122 247.367L608.398 247.75C609.29 250.465 610.211 249.514 611.696 251.195C612.216 251.785 612.708 252.98 613.11 253.687C613.579 253.892 614.367 254.378 614.844 254.444C616.029 254.609 616.11 253.781 617.246 254.688C617.261 256.049 616.928 256.526 615.997 257.549L615.122 258.373C614.37 259.24 614.948 258.705 614.355 259.586C613.852 260.334 612.725 260.552 611.914 260.789L611.511 260.619C610.806 260.361 611.04 260.45 610.253 260.38C609.521 260.316 609.225 260.195 608.604 259.831L607.899 260.275C607.257 260.191 605.984 259.299 605.377 258.984L599.165 255.856L585.745 249.586C583.009 248.371 580.05 247.364 577.54 245.735C578.651 242.465 579.042 238.884 579.103 235.441L580.062 236.264ZM580.062 236.264C579.875 239.003 580.488 241.13 581.321 243.705C582.341 244.153 582.94 244.291 584.043 243.945L585.742 243.168C586.239 243.665 587.494 244.116 587.577 244.414C587.892 245.535 588.214 246.23 589.265 246.773C591.086 247.713 592.828 247.759 594.824 247.536L594.458 246.875C593.921 245.037 596.417 244.134 594.874 242.743C594.382 242.3 594.17 242.162 593.559 241.992L593.559 241.211C594.613 240.999 595.086 240.984 596.096 241.369C596.63 242.555 595.843 243.201 597.268 243.771C598.214 244.15 599.556 243.953 600.565 243.919L599.245 243.292C597.817 242.496 597.949 242.373 597.516 240.82C595.783 239.479 595.086 240.459 593.254 240.133C591.613 239.841 591.129 239.155 590.245 237.794L590.039 237.473C589.069 237.141 588.106 237.34 587.109 237.447C586.169 236.843 585.95 236.718 585.434 235.742C584.366 235.042 583.992 234.611 582.617 234.786C581.61 234.914 580.679 235.49 580.062 236.264Z"/>
	<path fill="#FEFEED" fill-opacity="0.16470589" d="M580.062 236.264C580.679 235.49 581.61 234.914 582.617 234.786C583.992 234.611 584.366 235.042 585.434 235.742C585.95 236.718 586.169 236.843 587.109 237.447C588.106 237.34 589.069 237.141 590.039 237.473L590.245 237.794C591.129 239.155 591.613 239.841 593.254 240.133C595.086 240.459 595.783 239.479 597.516 240.82C597.949 242.373 597.817 242.496 599.245 243.292L600.565 243.919C599.556 243.953 598.214 244.15 597.268 243.771C595.843 243.201 596.63 242.555 596.096 241.369C595.086 240.984 594.613 240.999 593.559 241.211L593.559 241.992C594.17 242.162 594.382 242.3 594.874 242.743C596.417 244.134 593.921 245.037 594.458 246.875L594.824 247.536C592.828 247.759 591.086 247.713 589.265 246.773C588.214 246.23 587.892 245.535 587.577 244.414C587.494 244.116 586.239 243.665 585.742 243.168L584.043 243.945C582.94 244.291 582.341 244.153 581.321 243.705C580.488 241.13 579.875 239.003 580.062 236.264ZM581.876 235.742C580.759 236.751 580.799 236.68 580.664 238.18L580.955 238.567C581.723 239.806 581.573 241.461 582.617 242.42C583.35 241.922 583.497 242.04 583.713 241.113C584.111 239.398 583.445 237.67 583.626 235.938C582.777 235.397 582.812 235.58 581.876 235.742Z"/>
	<path fill="#FAFAEF" fill-opacity="0.25490198" d="M581.876 235.742C582.812 235.58 582.777 235.397 583.626 235.938C583.445 237.67 584.111 239.398 583.713 241.113C583.497 242.04 583.35 241.922 582.617 242.42C581.573 241.461 581.723 239.806 580.955 238.567L580.664 238.18C580.799 236.68 580.759 236.751 581.876 235.742Z"/>
	<path fill="#FEFFED" fill-opacity="0.78431374" d="M538.78 210.548C539.047 208.834 538.687 207.307 539.959 205.925C540.575 205.257 541.545 205.303 542.383 205.241C543.975 206.064 546.508 207.392 548.242 206.904L548.358 205.824C550.279 207.574 551.829 209.777 553.4 211.843C558.076 217.987 562.91 225.846 563.301 233.789C563.451 236.83 562.454 241.131 560.309 243.404C557.219 246.678 550.589 247.343 546.3 247.255C545.091 247.231 543.945 247.168 542.759 246.92C542.873 246.624 542.828 246.803 542.808 246.315L542.787 245.893C543.404 245.126 544.13 244.267 544.533 243.361L544.73 242.773C548.078 233.86 545.202 225.008 541.562 216.681C540.743 214.807 539.423 212.956 538.875 210.997L538.78 210.548Z"/>
	<defs>
		<linearGradient id="gradient_4" gradientUnits="userSpaceOnUse" x1="656.89899" y1="274.23599" x2="633.63501" y2="290.703">
			<stop offset="0" stop-color="#FFFFF4" stop-opacity="0"/>
			<stop offset="1" stop-color="#FFFFF0" stop-opacity="0.031372551"/>
		</linearGradient>
	</defs>
	<path fill="url(#gradient_4)" d="M611.009 246.615C616.198 249.241 621.239 252.877 626.051 256.153C649.738 272.274 671.24 292.151 687.396 315.932C687.215 316.574 687.056 317.043 687.14 317.719C687.228 318.433 687.26 317.914 687.107 318.725C686.171 318.614 685.614 317.725 684.962 317.061C669.687 301.494 652.892 288.167 634.617 276.271L607.899 260.275L608.604 259.831C609.225 260.195 609.521 260.316 610.253 260.38C611.04 260.45 610.806 260.361 611.511 260.619L611.914 260.789C612.725 260.552 613.852 260.334 614.355 259.586C614.948 258.705 614.37 259.24 615.122 258.373L615.997 257.549C616.928 256.526 617.261 256.049 617.246 254.688C616.11 253.781 616.029 254.609 614.844 254.444C614.367 254.378 613.579 253.892 613.11 253.687C612.708 252.98 612.216 251.785 611.696 251.195C610.211 249.514 609.29 250.465 608.398 247.75L607.122 247.367L607.177 247.188C608.582 247.162 609.691 247.13 611.009 246.615Z"/>
	<path fill="#FDBA64" d="M397.793 166.947C396.546 158.366 398.727 147.38 401.754 139.396C404.615 131.851 409.507 123.928 417.171 120.543C419.376 119.569 423.074 118.613 425.367 119.65C434.362 123.717 426.959 151.817 429.96 159.648L430.108 159.997L429.048 162.18C428.863 163.091 428.296 163.651 427.539 164.213L426.754 164.648L425.781 165.432C422.236 168.241 419.86 171.083 417.536 175.01C418.123 169.952 419.636 159.922 416.125 155.774C415.328 154.832 414.348 153.978 413.086 153.835C410.636 153.559 408.144 154.758 406.369 156.372C403.693 158.805 402.393 162.3 401.629 165.733C401.459 166.493 401.141 167.156 400.818 167.861C400.579 166.709 399.869 161.597 399.172 161.133C399.069 161.995 398.981 162.591 398.658 163.406C398.205 164.551 398.018 165.741 397.793 166.947Z"/>
	<path fill="#ED8950" d="M708.43 784.632L741.516 654.177L746.493 658.723L750.03 662.77C748.51 691.606 743.702 720.123 738.178 748.426L732.59 774.365C731.83 777.629 731.27 780.965 730.328 784.18L734.095 784.449L708.43 784.632Z"/>
	<path fill="#FDBA64" d="M746.493 658.723L747.289 657.617C749.451 657.315 749.389 659.492 751.076 659.766L750.977 658.833C752.664 659.502 754.441 659.205 756.25 659.408C758.026 659.607 759.12 658.339 760.321 657.227L761.328 657.346C762.255 659.906 764.437 664.967 764.34 667.59L769.281 689.627C775.454 720.553 774.669 753.125 773.332 784.499L734.095 784.449L730.328 784.18C731.27 780.965 731.83 777.629 732.59 774.365L738.178 748.426C743.702 720.123 748.51 691.606 750.03 662.77L746.493 658.723ZM746.493 658.723L750.03 662.77C752.126 665.268 754.058 667.908 755.793 670.669C756.086 671.134 757.691 674.06 758.025 674.171C758.618 673.987 759.171 673.869 759.786 673.795L760.468 673.716C761.448 672.445 761.892 671.004 762.789 669.741L763.376 668.945C763.541 668.494 763.53 667.995 763.661 667.533L764.34 667.59C764.437 664.967 762.255 659.906 761.328 657.346L760.321 657.227C759.12 658.339 758.026 659.607 756.25 659.408C754.441 659.205 752.664 659.502 750.977 658.833L751.076 659.766C749.389 659.492 749.451 657.315 747.289 657.617L746.493 658.723ZM758.025 674.171L766.542 693.83L769.281 689.627L764.34 667.59L763.661 667.533C763.53 667.995 763.541 668.494 763.376 668.945L762.789 669.741C761.892 671.004 761.448 672.445 760.468 673.716L759.786 673.795C759.171 673.869 758.618 673.987 758.025 674.171Z"/>
	<path fill="#FEFFED" fill-opacity="0.3137255" d="M746.493 658.723L747.289 657.617C749.451 657.315 749.389 659.492 751.076 659.766L750.977 658.833C752.664 659.502 754.441 659.205 756.25 659.408C758.026 659.607 759.12 658.339 760.321 657.227L761.328 657.346C762.255 659.906 764.437 664.967 764.34 667.59L763.661 667.533C763.53 667.995 763.541 668.494 763.376 668.945L762.789 669.741C761.892 671.004 761.448 672.445 760.468 673.716L759.786 673.795C759.171 673.869 758.618 673.987 758.025 674.171C757.691 674.06 756.086 671.134 755.793 670.669C754.058 667.908 752.126 665.268 750.03 662.77L746.493 658.723Z"/>
	<path fill="#ED8950" d="M512.738 135.121L516.708 135.051C515.805 142.535 510.346 148.548 504.606 153.057C496.835 159.16 487.768 163.885 478.602 167.533L468.016 171.472C466.542 172.033 464.642 172.512 463.411 173.463C470.727 174.798 480.406 179.171 484.895 185.353C486.935 188.164 488.13 191.512 487.375 194.988C486.493 199.053 482.942 202.451 479.492 204.529C473.935 207.876 467.475 209.512 461.133 210.555C445.226 213.171 429.907 211.468 413.988 210.511L386.519 209.439L368.708 209.287C366.518 209.276 363.607 209.64 361.523 209.171C360.832 209.015 360.586 208.635 359.961 208.402C359.642 208.284 359.169 208.304 358.826 208.302L360.145 208.086L359.104 207.625C360.068 207.056 362.811 206.972 364.023 206.803L389.627 204.166C390.472 203.993 391.203 203.812 391.992 203.463L392.307 202.148C392.945 199.872 391.932 198.351 391.052 196.289C391.439 195.331 391.512 194.564 391.556 193.55L391.571 193.164L392.578 192.517L392.805 191.807C393.684 191.107 399.168 190.868 400.636 190.651C400.186 187.644 398.849 184.148 398.937 181.15L398.97 180.445L397.793 166.947C398.018 165.741 398.205 164.551 398.658 163.406C398.981 162.591 399.069 161.995 399.172 161.133C399.869 161.597 400.579 166.709 400.818 167.861C401.141 167.156 401.459 166.493 401.629 165.733C402.393 162.3 403.693 158.805 406.369 156.372C408.144 154.758 410.636 153.559 413.086 153.835C414.348 153.978 415.328 154.832 416.125 155.774C419.636 159.922 418.123 169.952 417.536 175.01C419.86 171.083 422.236 168.241 425.781 165.432L426.754 164.648L427.539 164.213C428.296 163.651 428.863 163.091 429.048 162.18L437.193 156.565C441.158 152.662 444.169 149.925 449.691 148.542C450.551 148.449 451.29 148.837 452.148 148.751C453.373 148.629 455.021 147.709 456.196 147.26L465.906 143.683L484.16 138.53L484.29 138.045C485.233 136.859 486.169 137.161 487.048 136.294C487.492 135.855 488.159 135.454 488.799 135.352C490.061 135.149 490.315 135.358 491.353 135.991L491.478 136.914C494.1 137.232 496.851 136.785 499.466 136.505L511.746 135.177L512.738 135.121ZM398.97 180.445L398.937 181.15C398.849 184.148 400.186 187.644 400.636 190.651C399.168 190.868 393.684 191.107 392.805 191.807L392.578 192.517L391.571 193.164L391.556 193.55C391.512 194.564 391.439 195.331 391.052 196.289C391.932 198.351 392.945 199.872 392.307 202.148L391.992 203.463C391.203 203.812 390.472 203.993 389.627 204.166L415.244 203.867C413.816 201.974 412.311 200.097 411.148 198.026C409.84 195.698 408.605 193.398 407.532 190.948C406.653 188.943 406.078 186.076 404.578 184.49L404.278 184.816L403.869 183.789C403.251 182.685 402.907 182.309 402.723 181.001L402.68 180.664C401.897 180.664 402.162 181.665 401.463 182.322C400.54 181.047 400.563 180.887 398.97 180.445ZM397.793 166.947L398.97 180.445C400.563 180.887 400.54 181.047 401.463 182.322C402.162 181.665 401.897 180.664 402.68 180.664L402.723 181.001C402.907 182.309 403.251 182.685 403.869 183.789L404.278 184.816L404.578 184.49C402.654 179.442 401.898 173.182 400.818 167.861C400.579 166.709 399.869 161.597 399.172 161.133C399.069 161.995 398.981 162.591 398.658 163.406C398.205 164.551 398.018 165.741 397.793 166.947Z"/>
	<path fill="#FAFAEF" d="M449.691 148.542L450.336 149.685C449.39 150.748 447.083 151.583 445.783 152.262C443.079 153.675 440.474 155.463 437.667 156.625L437.193 156.565C441.158 152.662 444.169 149.925 449.691 148.542Z"/>
	<path fill="#FEFFED" fill-opacity="0.80392158" d="M398.97 180.445C400.563 180.887 400.54 181.047 401.463 182.322C402.162 181.665 401.897 180.664 402.68 180.664L402.723 181.001C402.907 182.309 403.251 182.685 403.869 183.789L404.278 184.816L404.578 184.49C406.078 186.076 406.653 188.943 407.532 190.948C408.605 193.398 409.84 195.698 411.148 198.026C412.311 200.097 413.816 201.974 415.244 203.867L389.627 204.166C390.472 203.993 391.203 203.812 391.992 203.463L392.307 202.148C392.945 199.872 391.932 198.351 391.052 196.289C391.439 195.331 391.512 194.564 391.556 193.55L391.571 193.164L392.578 192.517L392.805 191.807C393.684 191.107 399.168 190.868 400.636 190.651C400.186 187.644 398.849 184.148 398.937 181.15L398.97 180.445Z"/>
	<path fill="#FEFEED" d="M727.482 359.57C728.046 359.519 727.833 359.47 728.353 359.69C728.91 359.925 728.95 360.296 729.15 360.831C730.384 364.135 730.383 368.469 730.424 371.956C730.64 390.657 726.15 410.763 718.432 427.734C709.481 447.418 694.073 466.954 673.222 474.712C648.728 483.825 623.348 480.954 599.88 470.202C595.891 468.417 591.995 466.163 588.672 463.311C587.787 462.552 586.69 461.656 586.295 460.525C586.05 459.822 586.156 459.555 586.523 458.893C587.503 457.132 590.065 455.42 591.622 454.149L605.709 443.128L694.305 379.619L713.595 367.043C718.09 364.237 722.452 361.335 727.482 359.57Z"/>
</svg>
